<?xml version="1.0" encoding="utf-8"?>
<!-- Generator: Adobe Illustrator 19.0.0, SVG Export Plug-In . SVG Version: 6.00 Build 0)  -->
<svg version="1.1" id="Layer_1" xmlns="http://www.w3.org/2000/svg" xmlns:xlink="http://www.w3.org/1999/xlink" x="0px" y="0px"
	 viewBox="153.7 262.7 301.1 46" style="enable-background:new 153.7 262.7 301.1 46;" xml:space="preserve">
<style type="text/css">
	.st0{fill:#BE1E2D;}
</style>
<g id="XMLID_3_">
	<path id="XMLID_4_" class="st0" d="M176.2,304.4c0,2.8-1.4,4.2-4.2,4.2h-18.3v-45.8h18.2c2.7,0,4.1,1.4,4.1,4.2v11.8
		c0,1.6-0.5,2.8-1.5,3.6c-0.1,0.1-1.3,0.9-3.6,2.3c2.3,1.4,3.6,2.2,3.7,2.3c1.1,0.9,1.6,2.2,1.6,3.8V304.4z M169.1,279.6v-11.1h-8.6
		v13.4h5.3L169.1,279.6z M169.3,302.8v-13.1l-3.4-2.2h-5.4v15.3L169.3,302.8L169.3,302.8z"/>
	<path id="XMLID_8_" class="st0" d="M204.7,304.4c0,2.8-1.4,4.2-4.2,4.2h-14.9c-2.7,0-4.1-1.4-4.1-4.2V267c0-2.8,1.4-4.2,4.1-4.2
		h14.9c2.8,0,4.2,1.4,4.2,4.2V304.4z M197.8,302.7v-34.1h-9.4v34.1H197.8z"/>
	<path id="XMLID_11_" class="st0" d="M233,308.6h-7.4l-5-16.1l-5.1,16.1h-7.3v-0.2l8.6-23.2c-5.4-14.8-8-22.3-8-22.4h7.3l4.6,14.9
		l4.6-14.9h7.3v0.3l-8,21.9L233,308.6z"/>
	<path id="XMLID_13_" class="st0" d="M243.6,308.6h-6.9v-45.8h6.9V308.6z"/>
	<path id="XMLID_15_" class="st0" d="M272.4,308.6h-6l-11-28.9c0.3,1.4,0.4,2.5,0.4,3.3v25.5h-6.7v-45.8h6l11,28.3
		c-0.3-1.4-0.4-2.5-0.4-3.3v-25h6.7V308.6z"/>
	<path id="XMLID_17_" class="st0" d="M300.6,304.4c0,2.8-1.4,4.2-4.2,4.2H282c-2.7,0-4.1-1.4-4.1-4.2V267c0-2.8,1.4-4.2,4.2-4.2
		h14.3c2.8,0,4.2,1.4,4.2,4.2v9.8h-6.9v-8.1h-8.9v34.1h8.9V290h-5.1v-6h12V304.4z"/>
	<path id="XMLID_19_" class="st0" d="M341.9,308.6h-7.1l-7.6-21.3v-4.1h6.7v-14.5h-8.6v40h-6.9v-45.8h18.2c2.8,0,4.1,1.4,4.1,4.2
		v16.7c0,1.9-0.7,3.2-2,3.8c-0.7,0.3-2.2,0.4-4.5,0.4L341.9,308.6z"/>
	<path id="XMLID_21_" class="st0" d="M369.2,304.4c0,2.8-1.4,4.2-4.2,4.2h-14.9c-2.7,0-4.1-1.4-4.1-4.2V267c0-2.8,1.4-4.2,4.1-4.2
		H365c2.8,0,4.2,1.4,4.2,4.2V304.4z M362.4,302.7v-34.1H353v34.1H362.4z"/>
	<path id="XMLID_24_" class="st0" d="M397.7,304.4c0,2.8-1.4,4.2-4.2,4.2h-14.6c-2.8,0-4.2-1.4-4.2-4.2v-41.7h6.9v40h9.2v-40h6.9
		L397.7,304.4L397.7,304.4z"/>
	<path id="XMLID_26_" class="st0" d="M426.4,308.6h-6l-11-28.9c0.3,1.4,0.4,2.5,0.4,3.3v25.5h-6.7v-45.8h6l11,28.3
		c-0.3-1.4-0.4-2.5-0.4-3.3v-25h6.7V308.6z"/>
	<path id="XMLID_28_" class="st0" d="M454.8,299.9c0,2.7-0.8,4.8-2.4,6.3s-3.8,2.3-6.5,2.3h-14v-45.8h14c2.7,0,4.9,0.8,6.5,2.3
		s2.4,3.7,2.4,6.4V299.9z M447.9,298.8v-26.3c0-2.6-1.3-3.8-4-3.8h-5.1v34.1h4.9C446.5,302.7,447.9,301.4,447.9,298.8z"/>
</g>
</svg>
