<?xml version="1.0" encoding="utf-8"?>
<!-- Generator: Adobe Illustrator 19.0.0, SVG Export Plug-In . SVG Version: 6.00 Build 0)  -->
<svg version="1.1" xmlns="http://www.w3.org/2000/svg" xmlns:xlink="http://www.w3.org/1999/xlink" x="0px" y="0px"
	 viewBox="0 0 160 160" style="enable-background:new 0 0 494.3 494.3;" xml:space="preserve">
  
  <g transform="translate(30, 30)">
      </g>
  
<style type="text/css">
	.st0{fill:#AA686B;}
	.st1{fill:#3F393A;stroke:#000000;stroke-width:17;stroke-miterlimit:10;}
	.st2{fill:#7E1416;stroke:#000000;stroke-width:10;stroke-miterlimit:10;}
	.st3{fill:#7E1416;}
	.st4{fill:#441214;}
	.st5{fill:#441214;stroke:#000000;stroke-miterlimit:10;}
</style>
<g id="Layer_4">
	<path id="XMLID_9_" class="st0" d="M187.1,98.1c0,0,55.2,16.9,106.5,0c0,0,24-7.8,0-11c0,0-25.3-8.4-83.8,3.2
		C209.8,90.3,196.8,92.3,187.1,98.1z"/>
	<circle id="XMLID_2_" class="st1" cx="247.1" cy="247.1" r="238.6"/>
</g>
<g id="Layer_2">
	<path id="XMLID_3_" class="st2" d="M330.6,88.4c0,0,3.9-11.8-70.8-11.8c0,0-72.1-3.2-93.5,18.3c0,0-51.9,48.1,0,211.7l4.5,2.6
		c0,0-3.2,2.6,0,9.1c0,0-3.9,5.2-3.9,13.6l-0.6,82.5c0,0-4.5,23.4,78.6,20.1c0,0,57.1-1.3,59.7-20.1l2.6-85.7c0,0,0-8.4-4.5-9.1
		l1.9-7.1c0,0,49.4-29.9,65.6-120.8c0,0,8.4-73.4-29.9-65.6C340.3,126,343.6,104.6,330.6,88.4z"/>
	<path id="XMLID_1_" class="st2" d="M280.6,314.2"/>
	<g id="XMLID_8_">
		<path id="XMLID_19_" class="st3" d="M315.5,185.8c0,0-9,9.7-10.9,18.2"/>
		<path id="XMLID_18_" d="M319.2,189.1c0,0-0.1,0-0.2,0.1c-0.1,0.1-0.3,0.2-0.5,0.3c-0.5,0.3-1.1,0.8-1.9,1.4
			c-1.5,1.2-3.6,2.8-5.5,4.7c-1,0.9-1.9,1.9-2.7,2.8c-0.4,0.5-0.8,0.9-1.2,1.4c-0.3,0.5-0.7,0.9-1,1.3c-0.3,0.4-0.5,0.8-0.8,1.1
			c-0.2,0.3-0.4,0.7-0.5,0.9c-0.3,0.5-0.5,0.8-0.5,0.8s0-0.3,0-0.9c0-0.3,0-0.7,0.1-1.1c0.1-0.4,0.1-0.9,0.2-1.4
			c0.1-0.5,0.2-1.1,0.3-1.7c0.1-0.6,0.3-1.2,0.5-1.9c0.4-1.3,0.8-2.7,1.3-4c1-2.7,2.2-5.3,3.1-7.3c0.5-1,0.9-1.8,1.2-2.4
			c0.3-0.6,0.5-0.9,0.5-0.9L319.2,189.1z"/>
	</g>
	<path id="XMLID_10_" class="st4" d="M340.3,241.6c0,0-21.8,70.8-94.7,64.3c0,0,7.6-13,7-18.2C252.7,287.7,301.4,288.4,340.3,241.6z
		"/>
	<path id="XMLID_11_" class="st4" d="M293,368.2v40.9c0,0-10.2,12.3-47.3,13.6C245.7,422.8,285.9,397.5,293,368.2z"/>
	<path id="XMLID_15_" class="st0" d="M181.2,328c0,0,53,7.1,75.9,2.6c0,0-30.4,8.4-75.9,4.5V328z"/>
	<path id="XMLID_16_" class="st0" d="M280.6,89c0,0-111-12.3-119.5,40.9C161.1,129.9,200.1,97.5,280.6,89z"/>
</g>
<g id="Layer_3">
	<g id="XMLID_4_">
		<path id="XMLID_26_" class="st4" d="M340.3,126c0,0-4.1,54.5-24.8,59.7C315.5,185.8,305.9,148.8,340.3,126z"/>
		<path id="XMLID_23_" d="M340.3,126c0.2,1.4,0.2,2.9,0.3,4.3c0.1,1.4,0.1,2.9,0.1,4.3c0,2.9-0.1,5.7-0.3,8.6
			c-0.1,1.4-0.2,2.9-0.4,4.3c-0.1,1.4-0.3,2.9-0.5,4.3c-0.4,2.9-0.9,5.7-1.6,8.6c-0.4,1.4-0.7,2.8-1.1,4.3c-0.4,1.4-0.9,2.8-1.3,4.2
			c-0.5,1.4-1,2.8-1.6,4.2c-0.3,0.7-0.6,1.4-1,2.1c-0.3,0.7-0.7,1.4-1.1,2.1c-0.4,0.7-0.7,1.4-1.2,2l-1.3,2l-1.5,1.9
			c-0.5,0.6-1.1,1.3-1.7,1.9c-0.6,0.6-1.3,1.2-1.9,1.8c-0.7,0.6-1.5,1.1-2.2,1.6c-0.8,0.5-1.7,0.9-2.5,1.3c-0.9,0.4-1.8,0.6-2.7,0.9
			l-4.8,1.5l-1.3-5.1c-0.1-0.6-0.2-0.9-0.3-1.3l-0.2-1.2c-0.1-0.8-0.2-1.6-0.3-2.3c-0.2-1.6-0.3-3.1-0.4-4.7c-0.1-1.6,0-3.1,0-4.6
			c0.1-1.5,0.2-3.1,0.3-4.6c0.2-1.5,0.4-3.1,0.7-4.6l0.5-2.3l0.6-2.2c0.4-1.5,0.9-3,1.4-4.4c0.3-0.7,0.6-1.4,0.9-2.1
			c0.3-0.7,0.6-1.4,0.9-2.1l1-2.1l1.2-2c0.4-0.7,0.8-1.3,1.2-1.9c0.4-0.6,0.8-1.3,1.3-1.9l1.4-1.8l1.5-1.7c0.5-0.6,1-1.1,1.5-1.7
			c0.5-0.5,1-1.1,1.6-1.6c1.1-1,2.2-2,3.4-2.9l1.8-1.4l1.8-1.2c1.2-0.9,2.5-1.5,3.8-2.3C337.7,127.2,339,126.6,340.3,126z
			 M340.3,126c-1,1.1-2.1,2-3,3.1c-1,1.1-2,2.1-2.9,3.2l-1.4,1.6l-1.3,1.7c-0.9,1.1-1.6,2.2-2.4,3.4c-0.4,0.6-0.7,1.2-1.1,1.7
			c-0.4,0.6-0.7,1.2-1.1,1.8l-1,1.8l-0.9,1.8c-0.3,0.6-0.6,1.2-0.9,1.8c-0.3,0.6-0.6,1.2-0.8,1.8l-0.7,1.9l-0.7,1.9
			c-0.2,0.6-0.4,1.3-0.6,1.9c-0.2,0.6-0.4,1.3-0.5,1.9c-0.4,1.3-0.6,2.6-0.9,3.9c-0.2,1.3-0.4,2.6-0.6,3.9c-0.1,1.3-0.3,2.6-0.3,4
			l-0.1,2l0,2c0,1.3,0.1,2.6,0.2,4c0.1,1.3,0.2,2.6,0.4,3.9c0.1,0.6,0.2,1.3,0.3,1.9l0.2,0.9l0.2,0.8l-6.1-3.6
			c0.4-0.2,0.8-0.3,1.3-0.4c0.4-0.2,0.8-0.4,1.3-0.6c0.4-0.3,0.8-0.5,1.2-0.8c0.4-0.4,0.8-0.7,1.2-1c0.4-0.4,0.8-0.8,1.2-1.2
			l1.1-1.3l1.1-1.5c0.4-0.5,0.7-1,1-1.6c0.4-0.5,0.7-1.1,1-1.6c0.3-0.5,0.6-1.1,0.9-1.7c0.6-1.1,1.2-2.3,1.8-3.5
			c0.5-1.2,1.1-2.4,1.6-3.7c0.5-1.2,1-2.5,1.5-3.8c0.5-1.3,1-2.6,1.4-3.9c0.5-1.3,0.9-2.6,1.3-3.9l1.3-4c0.4-1.3,0.8-2.7,1.2-4
			l1.2-4l1.2-4.1L340.3,126z"/>
	</g>
	<g id="XMLID_5_">
		<path id="XMLID_14_" class="st4" d="M304.6,312.4c0,0-35.1,5.8-72.1,2.6"/>
		<path id="XMLID_13_" d="M305.4,317.3c0,0-1.2,0.1-3.2,0.3c-2,0.1-4.9,0.3-8.3,0.5c-3.4,0.2-7.4,0.3-11.7,0.3c-2.1,0-4.4,0-6.6,0
			c-2.2,0-4.5-0.1-6.8-0.1c-2.3-0.1-4.6-0.2-6.8-0.3c-2.2-0.1-4.4-0.3-6.6-0.4c-2.1-0.1-4.2-0.3-6.1-0.5c-1.9-0.2-3.8-0.3-5.5-0.6
			c-1.7-0.2-3.2-0.4-4.6-0.5c-1.4-0.2-2.6-0.4-3.5-0.5c-2-0.3-3.1-0.4-3.1-0.4s1.1,0,3.1,0c1,0,2.2,0,3.6,0c1.4,0,2.9-0.1,4.6-0.1
			c1.7,0,3.5-0.1,5.5-0.2c1.9-0.1,4-0.2,6.1-0.3c2.1-0.1,4.3-0.3,6.5-0.5c2.2-0.2,4.4-0.4,6.7-0.7c2.2-0.2,4.5-0.5,6.7-0.8
			c2.2-0.3,4.3-0.6,6.4-0.9c4.2-0.6,8-1.3,11.3-1.9c3.3-0.6,6-1.2,7.9-1.6c1.9-0.4,2.9-0.7,2.9-0.7L305.4,317.3z"/>
	</g>
	<path id="XMLID_7_" class="st5" d="M170.8,318.2c0,0,22.7,8.4,47.4,5.2"/>
</g>
</svg>
