<?xml version="1.0" encoding="UTF-8" standalone="no"?>
<!-- Generator: Adobe Illustrator 19.0.0, SVG Export Plug-In . SVG Version: 6.00 Build 0)  -->

<svg
   version="1.1"
   x="0px"
   y="0px"
   viewBox="0 0 160 160"
   style="enable-background:new 0 0 494.3 494.3;"
   xml:space="preserve"
   id="svg1"
   sodipodi:docname="appicon.svg"
   inkscape:version="1.4.2 (f4327f4, 2025-05-13)"
   xmlns:inkscape="http://www.inkscape.org/namespaces/inkscape"
   xmlns:sodipodi="http://sodipodi.sourceforge.net/DTD/sodipodi-0.dtd"
   xmlns="http://www.w3.org/2000/svg"
   xmlns:svg="http://www.w3.org/2000/svg"><defs
   id="defs1" /><sodipodi:namedview
   id="namedview1"
   pagecolor="#505050"
   bordercolor="#eeeeee"
   borderopacity="1"
   inkscape:showpageshadow="0"
   inkscape:pageopacity="0"
   inkscape:pagecheckerboard="0"
   inkscape:deskcolor="#505050"
   showgrid="false"
   inkscape:zoom="5.04375"
   inkscape:cx="69.888476"
   inkscape:cy="78.413879"
   inkscape:window-width="1920"
   inkscape:window-height="1009"
   inkscape:window-x="-8"
   inkscape:window-y="-8"
   inkscape:window-maximized="1"
   inkscape:current-layer="svg1" />
  
  <g
   transform="translate(30,30)"
   id="g1">
      </g>
  
<style
   type="text/css"
   id="style1">
	.st0{fill:#AA686B;}
	.st1{fill:#3F393A;stroke:#000000;stroke-width:17;stroke-miterlimit:10;}
	.st2{fill:#7E1416;stroke:#000000;stroke-width:10;stroke-miterlimit:10;}
	.st3{fill:#7E1416;}
	.st4{fill:#441214;}
	.st5{fill:#441214;stroke:#000000;stroke-miterlimit:10;}
</style>
<g
   id="Layer_4"
   transform="matrix(0.28308404,0,0,0.28308404,10.508055,11.499381)"
   style="display:inline;fill:#333333;stroke:#000000;stroke-opacity:1"
   sodipodi:insensitive="true">
	<path
   id="XMLID_9_"
   class="st0"
   d="m 187.1,98.1 c 0,0 55.2,16.9 106.5,0 0,0 24,-7.8 0,-11 0,0 -25.3,-8.4 -83.8,3.2 0,0 -13,2 -22.7,7.8 z"
   style="fill:#333333;stroke:#000000;stroke-opacity:1" />
	<circle
   id="XMLID_2_"
   class="st1"
   cx="247.10001"
   cy="247.10001"
   r="238.60001"
   style="fill:#333333;stroke:#000000;stroke-opacity:1" />
</g>
<g
   id="Layer_2"
   transform="matrix(0.28308404,0,0,0.28308404,10.111525,8.5254033)">
	<path
   id="XMLID_3_"
   class="st2"
   d="m 330.6,88.4 c 0,0 3.9,-11.8 -70.8,-11.8 0,0 -72.1,-3.2 -93.5,18.3 0,0 -51.9,48.1 0,211.7 l 4.5,2.6 c 0,0 -3.2,2.6 0,9.1 0,0 -3.9,5.2 -3.9,13.6 l -0.6,82.5 c 0,0 -4.5,23.4 78.6,20.1 0,0 57.1,-1.3 59.7,-20.1 l 2.6,-85.7 c 0,0 0,-8.4 -4.5,-9.1 l 1.9,-7.1 c 0,0 49.4,-29.9 65.6,-120.8 0,0 8.4,-73.4 -29.9,-65.6 0,-0.1 3.3,-21.5 -9.7,-37.7 z" />
	<path
   id="XMLID_1_"
   class="st2"
   d="M 280.6,314.2" />
	<g
   id="XMLID_8_">
		<path
   id="XMLID_19_"
   class="st3"
   d="m 315.5,185.8 c 0,0 -9,9.7 -10.9,18.2" />
		<path
   id="XMLID_18_"
   d="m 319.2,189.1 c 0,0 -0.1,0 -0.2,0.1 -0.1,0.1 -0.3,0.2 -0.5,0.3 -0.5,0.3 -1.1,0.8 -1.9,1.4 -1.5,1.2 -3.6,2.8 -5.5,4.7 -1,0.9 -1.9,1.9 -2.7,2.8 -0.4,0.5 -0.8,0.9 -1.2,1.4 -0.3,0.5 -0.7,0.9 -1,1.3 -0.3,0.4 -0.5,0.8 -0.8,1.1 -0.2,0.3 -0.4,0.7 -0.5,0.9 -0.3,0.5 -0.5,0.8 -0.5,0.8 0,0 0,-0.3 0,-0.9 0,-0.3 0,-0.7 0.1,-1.1 0.1,-0.4 0.1,-0.9 0.2,-1.4 0.1,-0.5 0.2,-1.1 0.3,-1.7 0.1,-0.6 0.3,-1.2 0.5,-1.9 0.4,-1.3 0.8,-2.7 1.3,-4 1,-2.7 2.2,-5.3 3.1,-7.3 0.5,-1 0.9,-1.8 1.2,-2.4 0.3,-0.6 0.5,-0.9 0.5,-0.9 z" />
	</g>
	<path
   id="XMLID_10_"
   class="st4"
   d="m 340.3,241.6 c 0,0 -21.8,70.8 -94.7,64.3 0,0 7.6,-13 7,-18.2 0.1,0 48.8,0.7 87.7,-46.1 z" />
	<path
   id="XMLID_11_"
   class="st4"
   d="m 293,368.2 v 40.9 c 0,0 -10.2,12.3 -47.3,13.6 0,0.1 40.2,-25.2 47.3,-54.5 z" />
	<path
   id="XMLID_15_"
   class="st0"
   d="m 181.2,328 c 0,0 53,7.1 75.9,2.6 0,0 -30.4,8.4 -75.9,4.5 z" />
	<path
   id="XMLID_16_"
   class="st0"
   d="m 280.6,89 c 0,0 -111,-12.3 -119.5,40.9 0,0 39,-32.4 119.5,-40.9 z" />
</g>
<g
   id="Layer_3"
   transform="matrix(0.28308404,0,0,0.28308404,10.111525,8.5254033)">
	<g
   id="XMLID_4_">
		<path
   id="XMLID_26_"
   class="st4"
   d="m 340.3,126 c 0,0 -4.1,54.5 -24.8,59.7 0,0.1 -9.6,-36.9 24.8,-59.7 z" />
		<path
   id="XMLID_23_"
   d="m 340.3,126 c 0.2,1.4 0.2,2.9 0.3,4.3 0.1,1.4 0.1,2.9 0.1,4.3 0,2.9 -0.1,5.7 -0.3,8.6 -0.1,1.4 -0.2,2.9 -0.4,4.3 -0.1,1.4 -0.3,2.9 -0.5,4.3 -0.4,2.9 -0.9,5.7 -1.6,8.6 -0.4,1.4 -0.7,2.8 -1.1,4.3 -0.4,1.4 -0.9,2.8 -1.3,4.2 -0.5,1.4 -1,2.8 -1.6,4.2 -0.3,0.7 -0.6,1.4 -1,2.1 -0.3,0.7 -0.7,1.4 -1.1,2.1 -0.4,0.7 -0.7,1.4 -1.2,2 l -1.3,2 -1.5,1.9 c -0.5,0.6 -1.1,1.3 -1.7,1.9 -0.6,0.6 -1.3,1.2 -1.9,1.8 -0.7,0.6 -1.5,1.1 -2.2,1.6 -0.8,0.5 -1.7,0.9 -2.5,1.3 -0.9,0.4 -1.8,0.6 -2.7,0.9 l -4.8,1.5 -1.3,-5.1 c -0.1,-0.6 -0.2,-0.9 -0.3,-1.3 l -0.2,-1.2 c -0.1,-0.8 -0.2,-1.6 -0.3,-2.3 -0.2,-1.6 -0.3,-3.1 -0.4,-4.7 -0.1,-1.6 0,-3.1 0,-4.6 0.1,-1.5 0.2,-3.1 0.3,-4.6 0.2,-1.5 0.4,-3.1 0.7,-4.6 l 0.5,-2.3 0.6,-2.2 c 0.4,-1.5 0.9,-3 1.4,-4.4 0.3,-0.7 0.6,-1.4 0.9,-2.1 0.3,-0.7 0.6,-1.4 0.9,-2.1 l 1,-2.1 1.2,-2 c 0.4,-0.7 0.8,-1.3 1.2,-1.9 0.4,-0.6 0.8,-1.3 1.3,-1.9 l 1.4,-1.8 1.5,-1.7 c 0.5,-0.6 1,-1.1 1.5,-1.7 0.5,-0.5 1,-1.1 1.6,-1.6 1.1,-1 2.2,-2 3.4,-2.9 l 1.8,-1.4 1.8,-1.2 c 1.2,-0.9 2.5,-1.5 3.8,-2.3 1.4,-1 2.7,-1.6 4,-2.2 z m 0,0 c -1,1.1 -2.1,2 -3,3.1 -1,1.1 -2,2.1 -2.9,3.2 l -1.4,1.6 -1.3,1.7 c -0.9,1.1 -1.6,2.2 -2.4,3.4 -0.4,0.6 -0.7,1.2 -1.1,1.7 -0.4,0.6 -0.7,1.2 -1.1,1.8 l -1,1.8 -0.9,1.8 c -0.3,0.6 -0.6,1.2 -0.9,1.8 -0.3,0.6 -0.6,1.2 -0.8,1.8 l -0.7,1.9 -0.7,1.9 c -0.2,0.6 -0.4,1.3 -0.6,1.9 -0.2,0.6 -0.4,1.3 -0.5,1.9 -0.4,1.3 -0.6,2.6 -0.9,3.9 -0.2,1.3 -0.4,2.6 -0.6,3.9 -0.1,1.3 -0.3,2.6 -0.3,4 l -0.1,2 v 2 c 0,1.3 0.1,2.6 0.2,4 0.1,1.3 0.2,2.6 0.4,3.9 0.1,0.6 0.2,1.3 0.3,1.9 l 0.2,0.9 0.2,0.8 -6.1,-3.6 c 0.4,-0.2 0.8,-0.3 1.3,-0.4 0.4,-0.2 0.8,-0.4 1.3,-0.6 0.4,-0.3 0.8,-0.5 1.2,-0.8 0.4,-0.4 0.8,-0.7 1.2,-1 0.4,-0.4 0.8,-0.8 1.2,-1.2 l 1.1,-1.3 1.1,-1.5 c 0.4,-0.5 0.7,-1 1,-1.6 0.4,-0.5 0.7,-1.1 1,-1.6 0.3,-0.5 0.6,-1.1 0.9,-1.7 0.6,-1.1 1.2,-2.3 1.8,-3.5 0.5,-1.2 1.1,-2.4 1.6,-3.7 0.5,-1.2 1,-2.5 1.5,-3.8 0.5,-1.3 1,-2.6 1.4,-3.9 0.5,-1.3 0.9,-2.6 1.3,-3.9 l 1.3,-4 c 0.4,-1.3 0.8,-2.7 1.2,-4 l 1.2,-4 1.2,-4.1 z" />
	</g>
	<g
   id="XMLID_5_">
		<path
   id="XMLID_14_"
   class="st4"
   d="m 304.6,312.4 c 0,0 -35.1,5.8 -72.1,2.6" />
		<path
   id="XMLID_13_"
   d="m 305.4,317.3 c 0,0 -1.2,0.1 -3.2,0.3 -2,0.1 -4.9,0.3 -8.3,0.5 -3.4,0.2 -7.4,0.3 -11.7,0.3 -2.1,0 -4.4,0 -6.6,0 -2.2,0 -4.5,-0.1 -6.8,-0.1 -2.3,-0.1 -4.6,-0.2 -6.8,-0.3 -2.2,-0.1 -4.4,-0.3 -6.6,-0.4 -2.1,-0.1 -4.2,-0.3 -6.1,-0.5 -1.9,-0.2 -3.8,-0.3 -5.5,-0.6 -1.7,-0.2 -3.2,-0.4 -4.6,-0.5 -1.4,-0.2 -2.6,-0.4 -3.5,-0.5 -2,-0.3 -3.1,-0.4 -3.1,-0.4 0,0 1.1,0 3.1,0 1,0 2.2,0 3.6,0 1.4,0 2.9,-0.1 4.6,-0.1 1.7,0 3.5,-0.1 5.5,-0.2 1.9,-0.1 4,-0.2 6.1,-0.3 2.1,-0.1 4.3,-0.3 6.5,-0.5 2.2,-0.2 4.4,-0.4 6.7,-0.7 2.2,-0.2 4.5,-0.5 6.7,-0.8 2.2,-0.3 4.3,-0.6 6.4,-0.9 4.2,-0.6 8,-1.3 11.3,-1.9 3.3,-0.6 6,-1.2 7.9,-1.6 1.9,-0.4 2.9,-0.7 2.9,-0.7 z" />
	</g>
	<path
   id="XMLID_7_"
   class="st5"
   d="m 170.8,318.2 c 0,0 22.7,8.4 47.4,5.2" />
</g>
<g
   inkscape:groupmode="layer"
   id="layer3"
   inkscape:label="Layer 1"><text
     xml:space="preserve"
     style="font-stretch:condensed;font-size:64px;line-height:0.9;font-family:Impact;-inkscape-font-specification:'Impact Condensed';text-align:center;writing-mode:lr-tb;direction:ltr;text-anchor:middle;fill:#333333;stroke:#000000;stroke-opacity:1"
     x="80.495667"
     y="114.39902"
     id="text5"><tspan
       sodipodi:role="line"
       id="tspan5"
       x="80.495667"
       y="114.39902"
       style="font-size:64px;fill:#786721">B    R</tspan></text></g></svg>
